REM MD5 57a11c54eb33a741ac2875ed2459be11
FILE "UEFA Champions League - Season 2000-2001 (France).bin" BINARY
  TRACK 01 MODE2/2352
    INDEX 01 00:00:00
  TRACK 02 AUDIO
    INDEX 00 35:07:47
    INDEX 01 35:09:47
  TRACK 03 AUDIO
    INDEX 00 38:53:12
    INDEX 01 38:55:12
  TRACK 04 AUDIO
    INDEX 00 42:30:20
    INDEX 01 42:32:20
REM LEADOUT 46:07:28
